<?xml version="1.0" encoding="UTF-8" standalone="no"?> <!-- Created with Vectornator for iOS (http://vectornator.io/) --><!DOCTYPE svg PUBLIC "-//W3C//DTD SVG 1.1//EN" "http://www.w3.org/Graphics/SVG/1.1/DTD/svg11.dtd">
<svg height="100%" style="fill-rule:evenodd;clip-rule:evenodd;stroke-linecap:round;stroke-linejoin:round;" xmlns:xlink="http://www.w3.org/1999/xlink" xmlns="http://www.w3.org/2000/svg" xml:space="preserve" width="100%" xmlns:vectornator="http://vectornator.io" version="1.1" viewBox="0 0 750 500">
<metadata>
<vectornator:setting key="DisplayWhiteBackground" value="0"/>
<vectornator:setting key="RulersVisible" value="1"/>
<vectornator:setting key="SnapToEdges" value="0"/>
<vectornator:setting key="Units" value="Pixels"/>
<vectornator:setting key="New" value="1"/>
<vectornator:setting key="DynamicGuides" value="1"/>
<vectornator:setting key="SnapToPoints" value="0"/>
<vectornator:setting key="CMYKEnabledKey" value="0"/>
<vectornator:setting key="SnapToGrid" value="1"/>
<vectornator:setting key="SnapToGuides" value="1"/>
<vectornator:setting key="GridSpacing" value="36"/>
</metadata>
<defs/>
<g id="Layer 1" vectornator:layerName="Layer 1" visibility="hidden">
<path stroke="#000000" stroke-width="1" d="M503.536+320.388L520.464+320.388C552.825+320.388+579.06+336.674+579.06+356.764L579.06+417.854C579.06+437.944+552.825+454.23+520.464+454.23L503.536+454.23C471.175+454.23+444.94+437.944+444.94+417.854L444.94+356.764C444.94+336.674+471.175+320.388+503.536+320.388Z" fill="#319ac4" stroke-linecap="butt" opacity="1" stroke-linejoin="round"/>
<path d="M343.773+146.348C314.422+146.348+290.22+168.703+287.313+197.29C284.431+198.226+282.14+200.517+281.204+203.399C276.708+204.298+272.804+207.378+270.069+211.479C266.805+216.369+264.946+222.811+264.946+229.905C264.946+237+266.805+243.441+270.069+248.331C272.804+252.433+276.708+255.512+281.204+256.411C282.435+260.205+285.983+263.013+290.17+263.013C295.356+263.013+299.63+258.739+299.63+253.553L299.63+206.257C299.63+202.34+297.154+199.014+293.718+197.586C296.477+172.312+317.76+152.654+343.773+152.654C369.787+152.654+391.07+172.312+393.829+197.586C390.393+199.014+387.917+202.34+387.917+206.257L387.917+253.553C387.917+257.581+390.54+260.968+394.125+262.323C393.694+268.346+391.649+272.879+388.41+276.118C384.752+279.776+379.406+281.931+372.151+281.931L362.101+281.931C360.783+278.286+357.31+275.625+353.233+275.625L337.467+275.625C332.282+275.625+328.008+279.899+328.008+285.085C328.008+290.27+332.282+294.544+337.467+294.544L353.233+294.544C357.31+294.544+360.783+291.884+362.101+288.238L372.151+288.238C380.662+288.238+387.929+285.664+392.942+280.651C397.45+276.143+399.963+269.836+400.431+262.422C403.214+261.449+405.432+259.219+406.343+256.411C410.839+255.512+414.743+252.433+417.477+248.331C420.741+243.441+422.601+237+422.601+229.905C422.601+222.811+420.741+216.369+417.477+211.479C414.743+207.378+410.839+204.298+406.343+203.399C405.407+200.517+403.116+198.226+400.234+197.29C397.327+168.703+373.124+146.348+343.773+146.348ZM290.17+203.104C291.944+203.104+293.324+204.483+293.324+206.257L293.324+253.553C293.324+255.327+291.944+256.707+290.17+256.707C288.397+256.707+287.017+255.327+287.017+253.553L287.017+206.257C287.017+204.483+288.397+203.104+290.17+203.104ZM397.376+203.104C399.15+203.104+400.529+204.483+400.529+206.257L400.529+253.553C400.529+255.327+399.15+256.707+397.376+256.707C395.603+256.707+394.223+255.327+394.223+253.553L394.223+206.257C394.223+204.483+395.603+203.104+397.376+203.104ZM280.711+210.1L280.711+249.711C278.753+248.873+276.893+247.284+275.292+244.882C272.853+241.224+271.252+235.866+271.252+229.905C271.252+223.944+272.853+218.586+275.292+214.928C276.893+212.526+278.753+210.937+280.711+210.1ZM406.836+210.1C408.794+210.937+410.654+212.526+412.255+214.928C414.694+218.586+416.295+223.944+416.295+229.905C416.295+235.866+414.694+241.224+412.255+244.882C410.654+247.284+408.794+248.873+406.836+249.711L406.836+210.1ZM337.467+281.931L353.233+281.931C355.006+281.931+356.386+283.311+356.386+285.085C356.386+286.858+355.006+288.238+353.233+288.238L337.467+288.238C335.694+288.238+334.314+286.858+334.314+285.085C334.314+283.311+335.694+281.931+337.467+281.931Z" opacity="1" fill="#000000"/>
</g>
<g id="Layer 2" vectornator:layerName="Layer 2" visibility="hidden">
<g opacity="1">
<path stroke="#000000" stroke-width="1" d="M491.908+408.022L532.092+408.022C537.254+408.022+541.44+414.021+541.44+421.423L541.44+421.423C541.44+428.824+537.254+434.823+532.092+434.823L491.908+434.823C486.746+434.823+482.56+428.824+482.56+421.423L482.56+421.423C482.56+414.021+486.746+408.022+491.908+408.022Z" fill="#ffffb1" stroke-linecap="butt" opacity="1" stroke-linejoin="round"/>
<path stroke="#000000" stroke-width="2" d="M491.674+408.022C491.674+416.994+491.674+425.966+491.674+434.938" fill="#ffffb1" stroke-linecap="butt" opacity="1" stroke-linejoin="round"/>
<path stroke="#000000" stroke-width="2" d="M512+408.022C512+416.994+512+425.966+512+434.938" fill="#ffffb1" stroke-linecap="butt" opacity="1" stroke-linejoin="round"/>
<path stroke="#000000" stroke-width="2" d="M532.326+408.022C532.326+416.994+532.326+425.966+532.326+434.938" fill="#ffffb1" stroke-linecap="butt" opacity="1" stroke-linejoin="round"/>
<path stroke="#000000" stroke-width="2" d="M482.634+421.423C501.459+421.423+523.741+421.349+541.44+421.349" fill="#ffffb1" stroke-linecap="butt" opacity="1" stroke-linejoin="round"/>
</g>
<g opacity="1">
<path stroke="#000000" stroke-width="1" d="M491.674+357.746L491.674+357.746C502.9+357.746+512+366.846+512+378.072L512+378.072C512+389.297+502.9+398.398+491.674+398.398L491.674+398.398C480.449+398.398+471.348+389.297+471.348+378.072L471.348+378.072C471.348+366.846+480.449+357.746+491.674+357.746Z" fill="#ffffff" stroke-linecap="butt" opacity="1" stroke-linejoin="round"/>
<path stroke="#000000" stroke-width="1" d="M532.326+357.746L532.326+357.746C543.551+357.746+552.652+366.846+552.652+378.072L552.652+378.072C552.652+389.297+543.551+398.398+532.326+398.398L532.326+398.398C521.1+398.398+512+389.297+512+378.072L512+378.072C512+366.846+521.1+357.746+532.326+357.746Z" fill="#ffffff" stroke-linecap="butt" opacity="1" stroke-linejoin="round"/>
<path stroke="#000000" stroke-width="1" d="M491.674+368.958L491.674+368.958C496.708+368.958+500.788+373.038+500.788+378.072L500.788+378.072C500.788+383.105+496.708+387.186+491.674+387.186L491.674+387.186C486.641+387.186+482.56+383.105+482.56+378.072L482.56+378.072C482.56+373.038+486.641+368.958+491.674+368.958Z" fill="#000000" stroke-linecap="butt" opacity="1" stroke-linejoin="round"/>
<path stroke="#000000" stroke-width="1" d="M532.326+368.958L532.326+368.958C537.359+368.958+541.44+373.038+541.44+378.072L541.44+378.072C541.44+383.105+537.359+387.186+532.326+387.186L532.326+387.186C527.292+387.186+523.212+383.105+523.212+378.072L523.212+378.072C523.212+373.038+527.292+368.958+532.326+368.958Z" fill="#000000" stroke-linecap="butt" opacity="1" stroke-linejoin="round"/>
</g>
<g opacity="1">
<path stroke="#000000" stroke-width="1" d="M512+285.702L512+285.702C513.451+285.702+514.628+287.026+514.628+288.66L514.628+317.43C514.628+319.063+513.451+320.388+512+320.388L512+320.388C510.549+320.388+509.372+319.063+509.372+317.43L509.372+288.66C509.372+287.026+510.549+285.702+512+285.702Z" fill="#319ac4" stroke-linecap="butt" opacity="1" stroke-linejoin="round"/>
<g opacity="1">
<path stroke="#000000" stroke-width="1" d="M497.074+315.024L526.999+315.024C529.961+315.024+532.363+317.426+532.363+320.388L532.363+320.388C532.363+323.35+529.961+325.751+526.999+325.751L497.074+325.751C494.112+325.751+491.711+323.35+491.711+320.388L491.711+320.388C491.711+317.426+494.112+315.024+497.074+315.024Z" fill="#319ac4" stroke-linecap="butt" opacity="1" stroke-linejoin="round"/>
<path stroke="#000000" stroke-width="1" d="M505.08+285.702C505.08+281.88+508.178+278.782+512+278.782C515.822+278.782+518.92+281.88+518.92+285.702C518.92+289.524+515.822+292.622+512+292.622C508.178+292.622+505.08+289.524+505.08+285.702Z" fill="#319ac4" stroke-linecap="butt" opacity="1" stroke-linejoin="round"/>
</g>
</g>
</g>
<g id="Layer 5" vectornator:layerName="Layer 5" visibility="hidden">
<g opacity="1">
<path stroke="#000000" stroke-width="1" d="M582.801+453.031L623.15+437.173L626.948+386.81L674.938+361.725L691.365+313.989L716.591+316.222L701.37+374.341L654.894+406.976L651.166+454.365L586.269+486.02" fill="#319ac4" stroke-linecap="butt" opacity="1" stroke-linejoin="round"/>
<path stroke="#000000" stroke-width="1" d="M701.816+309.605L687.23+300.252L688.051+273.964L673.917+300.252L698.489+326.541L736.038+318.424L740.095+287.354L723.795+309.605L701.816+309.605Z" fill="#319ac4" stroke-linecap="butt" opacity="1" stroke-linejoin="round"/>
<path stroke="#000000" stroke-width="1" d="M440.386+452.411L400.036+436.554L396.238+386.191L348.248+361.106L331.821+313.37L306.596+315.603L321.816+373.722L368.292+406.357L372.02+453.746L436.917+485.401" fill="#319ac4" stroke-linecap="butt" opacity="1" stroke-linejoin="round"/>
<path stroke="#000000" stroke-width="1" d="M319.051+314.423L333.637+305.071L332.816+278.782L346.95+305.071L322.378+331.36L284.829+323.243L280.772+292.172L297.072+314.423L319.051+314.423Z" fill="#319ac4" stroke-linecap="butt" opacity="1" stroke-linejoin="round"/>
<path stroke="#000000" stroke-width="1" d="M440+452.549C440+452.549+476+474.174+512+474.174C548+474.174+584+452.549+584+452.549C588.152+452.549+591.911+454.749+594.631+458.304C597.352+461.86+599.035+466.772+599.035+472.197L599.035+535.126L599.035+598.054C599.035+603.48+597.352+608.392+594.631+611.947C591.911+615.503+588.152+617.702+584+617.702L512+617.702L440+617.702C435.848+617.702+432.089+615.503+429.369+611.947C426.648+608.392+424.965+603.48+424.965+598.054L424.965+535.126L424.965+472.197C424.965+466.772+426.648+461.86+429.369+458.304C432.089+454.749+435.848+452.549+440+452.549Z" fill="#319ac4" stroke-linecap="butt" opacity="1" stroke-linejoin="round"/>
</g>
</g>
<g id="Layer 3" vectornator:layerName="Layer 3">
<path d="M381.636+16.3766L297.975+16.3766C292.209+16.3766+287.517+21.0678+287.517+26.8341L287.517+33.1087L281.243+33.1087C275.477+33.1087+270.785+37.8+270.785+43.5663L270.785+106.312C270.785+112.078+275.477+116.769+281.243+116.769L364.903+116.769C370.67+116.769+375.361+112.078+375.361+106.312L375.361+100.037L381.636+100.037C387.402+100.037+392.093+95.3459+392.093+89.5796L392.093+26.8341C392.093+21.0678+387.402+16.3766+381.636+16.3766ZM281.243+37.2917L364.903+37.2917C366.855+37.2917+368.58+38.2057+369.731+39.607L327.091+75.1419C324.763+77.0828+321.383+77.0828+319.055+75.1419L276.416+39.607C277.566+38.2057+279.291+37.2917+281.243+37.2917ZM371.178+93.0452L341.66+68.4469L371.178+43.8507L371.178+93.0452ZM304.486+68.4469L274.968+93.0452L274.968+43.8507L304.486+68.4469ZM364.903+112.586L281.243+112.586C277.783+112.586+274.968+109.771+274.968+106.312L274.968+98.4936L307.755+71.1722L316.376+78.3565C318.317+79.9712+320.695+80.7806+323.073+80.7806C325.451+80.7806+327.829+79.9712+329.77+78.3565L338.391+71.1722L371.178+98.4936L371.178+106.312C371.178+109.771+368.363+112.586+364.903+112.586ZM387.91+89.5796C387.91+93.0389+385.095+95.8541+381.636+95.8541L375.361+95.8541L375.361+43.5663C375.361+37.8+370.67+33.1087+364.903+33.1087L291.7+33.1087L291.7+26.8341C291.7+23.3748+294.516+20.5596+297.975+20.5596L381.636+20.5596C385.095+20.5596+387.91+23.3748+387.91+26.8341L387.91+89.5796Z" opacity="1" fill="#0078ef"/>
<path d="M598.077+357.675C575.372+357.675+556.65+374.968+554.401+397.082C552.172+397.806+550.399+399.578+549.675+401.808C546.198+402.504+543.177+404.886+541.062+408.058C538.537+411.841+537.099+416.824+537.099+422.312C537.099+427.8+538.537+432.783+541.062+436.566C543.177+439.739+546.198+442.121+549.675+442.816C550.628+445.751+553.372+447.923+556.612+447.923C560.623+447.923+563.929+444.617+563.929+440.606L563.929+404.018C563.929+400.989+562.014+398.416+559.356+397.311C561.49+377.759+577.954+362.553+598.077+362.553C618.2+362.553+634.665+377.759+636.799+397.311C634.14+398.416+632.225+400.989+632.225+404.018L632.225+440.606C632.225+443.721+634.255+446.342+637.027+447.39C636.694+452.049+635.112+455.555+632.606+458.061C629.777+460.891+625.642+462.558+620.03+462.558L612.255+462.558C611.235+459.738+608.548+457.68+605.395+457.68L593.199+457.68C589.188+457.68+585.882+460.986+585.882+464.997C585.882+469.008+589.188+472.315+593.199+472.315L605.395+472.315C608.548+472.315+611.235+470.257+612.255+467.436L620.03+467.436C626.613+467.436+632.235+465.445+636.113+461.567C639.6+458.08+641.544+453.202+641.906+447.466C644.059+446.713+645.774+444.989+646.479+442.816C649.957+442.121+652.977+439.739+655.092+436.566C657.617+432.783+659.056+427.8+659.056+422.312C659.056+416.824+657.617+411.841+655.092+408.058C652.977+404.886+649.957+402.504+646.479+401.808C645.755+399.578+643.983+397.806+641.753+397.082C639.505+374.968+620.782+357.675+598.077+357.675ZM556.612+401.579C557.984+401.579+559.051+402.646+559.051+404.018L559.051+440.606C559.051+441.978+557.984+443.045+556.612+443.045C555.24+443.045+554.173+441.978+554.173+440.606L554.173+404.018C554.173+402.646+555.24+401.579+556.612+401.579ZM639.543+401.579C640.915+401.579+641.982+402.646+641.982+404.018L641.982+440.606C641.982+441.978+640.915+443.045+639.543+443.045C638.171+443.045+637.104+441.978+637.104+440.606L637.104+404.018C637.104+402.646+638.171+401.579+639.543+401.579ZM549.294+406.991L549.294+437.633C547.779+436.985+546.341+435.756+545.102+433.898C543.215+431.068+541.977+426.924+541.977+422.312C541.977+417.701+543.215+413.556+545.102+410.726C546.341+408.868+547.779+407.639+549.294+406.991ZM646.86+406.991C648.375+407.639+649.814+408.868+651.053+410.726C652.939+413.556+654.178+417.701+654.178+422.312C654.178+426.924+652.939+431.068+651.053+433.898C649.814+435.756+648.375+436.985+646.86+437.633L646.86+406.991ZM593.199+462.558L605.395+462.558C606.767+462.558+607.834+463.625+607.834+464.997C607.834+466.369+606.767+467.436+605.395+467.436L593.199+467.436C591.827+467.436+590.76+466.369+590.76+464.997C590.76+463.625+591.827+462.558+593.199+462.558Z" opacity="1" fill="#0078ef"/>
<path d="M657.012+128.614C657.012+129.931+655.943+131+654.626+131L645.081+131C643.764+131+642.695+129.931+642.695+128.614L642.695+119.069C642.695+117.752+643.764+116.683+645.081+116.683L654.626+116.683C655.943+116.683+657.012+117.752+657.012+119.069L657.012+128.614Z" opacity="1" fill="#0078ef"/>
<path d="M676.102+128.614C676.102+129.931+675.033+131+673.716+131L664.171+131C662.854+131+661.785+129.931+661.785+128.614L661.785+119.069C661.785+117.752+662.854+116.683+664.171+116.683L673.716+116.683C675.033+116.683+676.102+117.752+676.102+119.069L676.102+128.614Z" opacity="1" fill="#0078ef"/>
<path d="M695.191+128.614C695.191+129.931+694.122+131+692.805+131L683.26+131C681.943+131+680.874+129.931+680.874+128.614L680.874+119.069C680.874+117.752+681.943+116.683+683.26+116.683L692.805+116.683C694.122+116.683+695.191+117.752+695.191+119.069L695.191+128.614Z" opacity="1" fill="#0078ef"/>
<path d="M657.012+147.704C657.012+149.021+655.943+150.09+654.626+150.09L645.081+150.09C643.764+150.09+642.695+149.021+642.695+147.704L642.695+138.159C642.695+136.842+643.764+135.773+645.081+135.773L654.626+135.773C655.943+135.773+657.012+136.842+657.012+138.159L657.012+147.704Z" opacity="1" fill="#0078ef"/>
<path d="M676.102+147.704C676.102+149.021+675.033+150.09+673.716+150.09L664.171+150.09C662.854+150.09+661.785+149.021+661.785+147.704L661.785+138.159C661.785+136.842+662.854+135.773+664.171+135.773L673.716+135.773C675.033+135.773+676.102+136.842+676.102+138.159L676.102+147.704Z" opacity="1" fill="#0078ef"/>
<path d="M695.191+147.704C695.191+149.021+694.122+150.09+692.805+150.09L683.26+150.09C681.943+150.09+680.874+149.021+680.874+147.704L680.874+138.159C680.874+136.842+681.943+135.773+683.26+135.773L692.805+135.773C694.122+135.773+695.191+136.842+695.191+138.159L695.191+147.704Z" opacity="1" fill="#0078ef"/>
<path d="M730.984+138.159L719.053+138.159L719.053+88.0487C719.053+81.47+713.701+76.1177+707.122+76.1177L699.964+76.1177L699.964+73.7315C699.964+69.7847+696.752+66.5729+692.805+66.5729L688.033+66.5729C684.086+66.5729+680.874+69.7847+680.874+73.7315L680.874+76.1177L657.012+76.1177L657.012+73.7315C657.012+69.7847+653.8+66.5729+649.854+66.5729L645.081+66.5729C641.134+66.5729+637.923+69.7847+637.923+73.7315L637.923+76.1177L630.764+76.1177C624.185+76.1177+618.833+81.47+618.833+88.0487L618.833+164.407C618.833+170.986+624.185+176.338+630.764+176.338L690.419+176.338L690.419+178.724C690.419+185.303+695.771+190.655+702.35+190.655L730.984+190.655C737.563+190.655+742.915+185.303+742.915+178.724L742.915+150.09C742.915+143.511+737.563+138.159+730.984+138.159ZM709.509+104.752L714.281+104.752L714.281+138.159L709.509+138.159L709.509+104.752ZM685.647+73.7315C685.647+72.4143+686.718+71.3453+688.033+71.3453L692.805+71.3453C694.12+71.3453+695.191+72.4143+695.191+73.7315L695.191+83.2763C695.191+84.5935+694.12+85.6625+692.805+85.6625L688.033+85.6625C686.718+85.6625+685.647+84.5935+685.647+83.2763L685.647+73.7315ZM642.695+73.7315C642.695+72.4143+643.766+71.3453+645.081+71.3453L649.854+71.3453C651.168+71.3453+652.24+72.4143+652.24+73.7315L652.24+83.2763C652.24+84.5935+651.168+85.6625+649.854+85.6625L645.081+85.6625C643.766+85.6625+642.695+84.5935+642.695+83.2763L642.695+73.7315ZM630.764+80.8901L637.923+80.8901L637.923+83.2763C637.923+87.2231+641.134+90.4349+645.081+90.4349L649.854+90.4349C653.8+90.4349+657.012+87.2231+657.012+83.2763L657.012+80.8901L680.874+80.8901L680.874+83.2763C680.874+87.2231+684.086+90.4349+688.033+90.4349L692.805+90.4349C696.752+90.4349+699.964+87.2231+699.964+83.2763L699.964+80.8901L707.122+80.8901C711.069+80.8901+714.281+84.102+714.281+88.0487L714.281+99.9798L623.605+99.9798L623.605+88.0487C623.605+84.102+626.817+80.8901+630.764+80.8901ZM630.764+171.566C626.817+171.566+623.605+168.354+623.605+164.407L623.605+104.752L628.378+104.752L628.378+162.021C628.378+164.653+630.518+166.793+633.15+166.793L690.419+166.793L690.419+171.566L630.764+171.566ZM690.419+150.09L690.419+162.021L633.15+162.021L633.15+104.752L704.736+104.752L704.736+138.159L702.35+138.159C695.771+138.159+690.419+143.511+690.419+150.09ZM738.143+178.724C738.143+182.671+734.931+185.883+730.984+185.883L702.35+185.883C698.403+185.883+695.191+182.671+695.191+178.724L695.191+150.09C695.191+146.143+698.403+142.931+702.35+142.931L730.984+142.931C734.931+142.931+738.143+146.143+738.143+150.09L738.143+178.724Z" opacity="1" fill="#0078ef"/>
<path d="M719.053+150.09L714.281+150.09L714.281+166.793L730.984+166.793L730.984+162.021L719.053+162.021L719.053+150.09Z" opacity="1" fill="#0078ef"/>
<path d="M537.099+186.299C537.099+175.991+533.009+166.378+525.58+159.227C518.154+152.079+508.347+148.341+498.06+148.752C478.564+149.492+462.715+165.34+461.975+184.836C461.955+185.325+461.993+186.296+461.993+186.296L433.042+186.296C407.542+186.296+386.794+207.044+386.794+232.543C386.794+257.595+406.817+278.057+431.698+278.771L446.43+295.902C448.084+297.885+450.578+299.024+453.275+299.024C455.972+299.024+458.466+297.885+460.088+295.94L474.85+278.773C499.734+278.057+519.756+257.595+519.756+232.543C519.756+229.624+519.467+226.762+518.926+223.872L537.099+223.872L537.099+186.299ZM513.975+232.543C513.975+254.858+495.823+273.01+473.508+273.01L472.182+273.01L455.677+292.205C454.576+293.526+452.006+293.564+450.841+292.168L434.369+273.01L433.042+273.01C410.728+273.01+392.575+254.858+392.575+232.543C392.575+210.229+410.728+192.077+433.042+192.077L462.4+192.077C463.562+200.748+467.002+206.694+472.45+212.356C479.599+219.782+489.212+223.872+499.522+223.872L513.03+223.872C513.645+226.762+513.975+229.615+513.975+232.543ZM531.318+218.091L499.522+218.091C490.799+218.091+482.665+214.631+476.613+208.344C470.566+202.063+467.418+193.791+467.751+185.056C468.366+168.838+482.061+155.14+498.28+154.524C498.699+154.51+499.115+154.501+499.531+154.501C507.804+154.501+515.591+157.631+521.571+163.386C527.858+169.442+531.318+177.575+531.318+186.299L531.318+218.091Z" opacity="1" fill="#0078ef"/>
<path d="M493.742+203.639C493.742+200.446+496.33+197.858+499.522+197.858C502.715+197.858+505.303+200.446+505.303+203.639C505.303+206.831+502.715+209.42+499.522+209.42C496.33+209.42+493.742+206.831+493.742+203.639Z" opacity="1" fill="#0078ef"/>
<path d="M438.823+206.529L456.166+206.529L456.166+206.529L456.166+212.31L456.166+212.31L438.823+212.31L438.823+212.31L438.823+206.529L438.823+206.529Z" opacity="1" fill="#0078ef"/>
<path d="M438.823+218.091L467.727+218.091L467.727+218.091L467.727+223.872L467.727+223.872L438.823+223.872L438.823+223.872L438.823+218.091L438.823+218.091Z" opacity="1" fill="#0078ef"/>
<path d="M438.823+229.653L479.289+229.653L479.289+229.653L479.289+235.434L479.289+235.434L438.823+235.434L438.823+235.434L438.823+229.653L438.823+229.653Z" opacity="1" fill="#0078ef"/>
<path d="M404.137+241.215L502.413+241.215L502.413+241.215L502.413+246.996L502.413+246.996L404.137+246.996L404.137+246.996L404.137+241.215L404.137+241.215Z" opacity="1" fill="#0078ef"/>
<path d="M424.37+252.777L482.18+252.777L482.18+252.777L482.18+258.558L482.18+258.558L424.37+258.558L424.37+258.558L424.37+252.777L424.37+252.777Z" opacity="1" fill="#0078ef"/>
<path d="M499.522+166.063C493.146+166.063+487.961+171.844+487.961+177.625L493.742+177.625C493.742+174.734+496.334+171.844+499.522+171.844C502.711+171.844+505.303+174.436+505.303+177.625C505.303+180.813+502.711+183.406+499.522+183.406L496.632+183.406L496.632+192.077L502.413+192.077L502.413+188.822C505.303+187.539+511.084+183.004+511.084+177.628C511.084+171.248+505.899+166.063+499.522+166.063Z" opacity="1" fill="#0078ef"/>
<path d="M427.261+235.434L404.137+235.434L404.137+229.653C404.137+216.883+414.491+206.529+427.261+206.529L427.261+206.529L427.261+235.434Z" opacity="1" fill="#0078ef"/>
<path d="M115.876+225.941L223.657+225.941L223.657+225.941L223.657+237.917L223.657+237.917L115.876+237.917L115.876+237.917L115.876+225.941L115.876+225.941Z" opacity="1" fill="#0078ef"/>
<path d="M126.858+337.046L86.9424+277.168L96.9063+270.521L136.827+330.4L126.858+337.046Z" opacity="1" fill="#0078ef"/>
<path d="M50.0093+237.917C50.0093+224.689+60.7327+213.966+73.9607+213.966C87.1888+213.966+97.9122+224.689+97.9122+237.917C97.9122+251.145+87.1888+261.869+73.9607+261.869C60.7327+261.869+50.0093+251.145+50.0093+237.917Z" opacity="1" fill="#0078ef"/>
<path d="M307.488+249.893L295.512+249.893C292.207+249.893+289.524+247.204+289.524+243.905L289.524+219.954C289.524+216.654+292.207+213.966+295.512+213.966L307.488+213.966C320.697+213.966+331.439+203.223+331.439+190.014C331.439+176.805+320.697+166.063+307.488+166.063L271.56+166.063C257.082+166.063+244.98+176.398+242.22+190.074C242.016+190.062+241.825+190.014+241.621+190.014L229.645+190.014C223.041+190.014+217.67+195.385+217.67+201.99L105.541+201.99C97.0979+194.559+86.0622+190.014+73.9607+190.014C47.5482+190.014+26.0578+211.505+26.0578+237.917C26.0578+261.468+43.1531+281.06+65.5777+285.036L106.05+350.501C104.673+354.645+103.9+359.064+103.9+363.662L103.9+369.65L77.3199+369.65C69.0627+369.65+61.9012+375.243+59.9012+383.249L51.3206+417.553L38.0335+417.553C28.1296+417.553+20.0699+425.613+20.0699+435.517L20.0699+459.468C20.0699+469.372+28.1296+477.432+38.0335+477.432L253.597+477.432C263.501+477.432+271.56+469.372+271.56+459.468L271.56+435.517C271.56+425.613+263.501+417.553+253.597+417.553L240.31+417.553L231.735+383.249C229.735+375.243+222.568+369.65+214.31+369.65L187.73+369.65L187.73+363.662C187.73+345.543+176.156+330.124+160.03+324.28L121.199+261.869L217.67+261.869C217.67+268.473+223.041+273.844+229.645+273.844L241.621+273.844C241.825+273.844+242.016+273.797+242.22+273.785C244.98+287.461+257.082+297.796+271.56+297.796L307.488+297.796C320.697+297.796+331.439+287.054+331.439+273.844C331.439+260.635+320.697+249.893+307.488+249.893ZM38.0335+237.917C38.0335+218.103+54.1469+201.99+73.9607+201.99C93.7746+201.99+109.888+218.103+109.888+237.917C109.888+257.731+93.7746+273.844+73.9607+273.844C54.1469+273.844+38.0335+257.731+38.0335+237.917ZM79.8887+285.413C92.3974+283.856+103.433+277.497+111.038+268.198L144.396+321.819C131.426+322.256+119.954+328.598+112.559+338.256L79.8887+285.413ZM259.585+435.517L259.585+459.468C259.585+462.768+256.902+465.456+253.597+465.456L229.645+465.456C229.645+458.852+224.274+453.481+217.67+453.481L73.9607+453.481C67.3561+453.481+61.985+458.852+61.985+465.456L38.0335+465.456C34.7282+465.456+32.0456+462.768+32.0456+459.468L32.0456+435.517C32.0456+432.218+34.7282+429.529+38.0335+429.529L253.597+429.529C256.902+429.529+259.585+432.218+259.585+435.517ZM220.119+386.159L227.969+417.553L63.6616+417.553L66.6555+405.578L151.803+405.578L151.803+393.602L69.6495+393.602L71.5117+386.159C72.1823+383.488+74.5715+381.626+77.3199+381.626L214.316+381.626C217.059+381.626+219.448+383.488+220.119+386.159ZM175.755+363.662L175.755+369.65L115.876+369.65L115.876+363.662C115.876+347.154+129.307+333.723+145.815+333.723C162.324+333.723+175.755+347.154+175.755+363.662ZM120.289+249.893C121.283+246.055+121.864+242.061+121.864+237.917C121.864+229.187+119.481+221.019+115.379+213.966L217.67+213.966L217.67+249.893L120.289+249.893ZM229.645+261.869L229.645+201.99L241.621+201.99L241.621+261.869L229.645+261.869ZM307.488+285.82L271.56+285.82C261.657+285.82+253.597+277.76+253.597+267.857L253.597+261.869L253.597+201.99L253.597+196.002C253.597+186.098+261.657+178.039+271.56+178.039L307.488+178.039C314.092+178.039+319.463+183.41+319.463+190.014C319.463+196.619+314.092+201.99+307.488+201.99L295.512+201.99C285.608+201.99+277.548+210.05+277.548+219.954L277.548+243.905C277.548+253.809+285.608+261.869+295.512+261.869L307.488+261.869C314.092+261.869+319.463+267.24+319.463+273.844C319.463+280.449+314.092+285.82+307.488+285.82Z" opacity="1" fill="#0078ef"/>
<path d="M163.779+363.662C163.779+353.741+155.737+345.699+145.815+345.699C135.893+345.699+127.852+353.741+127.852+363.662L127.852+369.65L163.779+369.65L163.779+363.662Z" opacity="1" fill="#0078ef"/>
</g>
</svg>
