<?xml version="1.0" encoding="UTF-8" standalone="no"?> <!-- Created with Vectornator for iOS (http://vectornator.io/) --><!DOCTYPE svg PUBLIC "-//W3C//DTD SVG 1.1//EN" "http://www.w3.org/Graphics/SVG/1.1/DTD/svg11.dtd">
<svg style="fill-rule:evenodd;clip-rule:evenodd;stroke-linecap:round;stroke-linejoin:round;" xmlns:vectornator="http://vectornator.io" xmlns:xlink="http://www.w3.org/1999/xlink" xmlns="http://www.w3.org/2000/svg" xml:space="preserve" version="1.1" viewBox="0 0 110 110">
<style>
.socialIcon:hover{
    color: #EF003C;
}
</style>
<g id="Layer 1" vectornator:layerName="Layer 1" class="socialIcon">
<path d="M95.6838+5.2754L14.3162+5.2754C9.32118+5.2754+5.2754+9.32118+5.2754+14.3162L5.2754+95.6838C5.2754+100.679+9.32118+104.725+14.3162+104.725L95.6838+104.725C100.679+104.725+104.725+100.679+104.725+95.6838L104.725+14.3162C104.725+9.32118+100.679+5.2754+95.6838+5.2754ZM36.7104+86.6429L23.3752+86.6429L23.3752+43.7351L36.7104+43.7351L36.7104+86.6429ZM29.9072+37.6009C25.6082+37.6009+22.132+34.1157+22.132+29.8258C22.132+25.5359+25.6128+22.0552+29.9072+22.0552C34.1925+22.0552+37.6778+25.5404+37.6778+29.8258C37.6778+34.1157+34.1925+37.6009+29.9072+37.6009ZM86.661+86.6429L73.3348+86.6429L73.3348+65.7767C73.3348+60.7997+73.2444+54.3988+66.405+54.3988C59.4662+54.3988+58.3994+59.8188+58.3994+65.415L58.3994+86.6429L45.0732+86.6429L45.0732+43.7351L57.8659+43.7351L57.8659+49.5981L58.0468+49.5981C59.8278+46.2259+64.1764+42.6683+70.6632+42.6683C84.1657+42.6683+86.661+51.5554+86.661+63.1096C86.661+63.1096+86.661+86.6429+86.661+86.6429Z" opacity="1" fill="#ffffff"/>
</g>
</svg>
