<?xml version="1.0" encoding="UTF-8" standalone="no"?> <!-- Created with Vectornator for iOS (http://vectornator.io/) --><!DOCTYPE svg PUBLIC "-//W3C//DTD SVG 1.1//EN" "http://www.w3.org/Graphics/SVG/1.1/DTD/svg11.dtd">
<svg height="100%" style="fill-rule:evenodd;clip-rule:evenodd;stroke-linecap:round;stroke-linejoin:round;" xmlns:xlink="http://www.w3.org/1999/xlink" xmlns="http://www.w3.org/2000/svg" xml:space="preserve" width="100%" xmlns:vectornator="http://vectornator.io" version="1.1" viewBox="0 0 110 110">
<defs/>

<style>
.icon{
    fill: #ffffff;
}

.icon:hover{
    fill: #EF003C;
    opacity: 1;
}
</style>

<g id="Layer 1" vectornator:layerName="Layer 1">
<path class="socialIcons" d="M82.6389+5.25L27.3611+5.25C15.1503+5.25+5.25+15.1503+5.25+27.3611L5.25+82.6389C5.25+94.8497+15.1503+104.75+27.3611+104.75L82.6389+104.75C94.8497+104.75+104.75+94.8497+104.75+82.6389L104.75+27.3611C104.75+15.1503+94.8497+5.25+82.6389+5.25ZM82.9153+41.2579C82.9153+41.7333+82.9153+42.2032+82.9153+43.154C82.9153+61.1579+69.1732+82.0087+44.0605+82.0087C36.4819+82.0087+29.3732+79.6373+23.2153+75.8508C24.1605+75.8508+25.5867+75.8508+26.5319+75.8508C32.6899+75.8508+38.8534+73.4794+43.5907+70.1627C37.4327+70.1627+32.6954+65.9008+30.7994+60.6881C31.7446+60.6881+32.6954+61.1635+33.1708+61.1635C34.5914+61.1635+35.5422+61.1635+36.9629+60.6881C30.8049+59.2674+26.0676+54.0547+26.0676+47.4214C27.9636+48.3667+29.8597+48.8421+32.2256+49.3174C28.4335+46.0008+26.0676+42.2087+26.0676+37.4714C26.0676+35.1+26.543+32.7341+27.9636+30.8381C34.597+38.8921+44.547+44.5801+55.9176+45.05C55.9176+44.1047+55.4422+43.154+55.4422+41.7333C55.4422+34.1547+61.6002+27.9913+69.1843+27.9913C72.9763+27.9913+76.7629+29.4119+79.1343+32.2532C82.4509+31.7778+85.2922+30.3572+87.6636+28.9365C86.7184+32.2532+84.347+34.6246+81.5057+36.5151C84.347+36.0397+86.7184+35.5699+89.5597+34.1437C87.6526+36.996+85.2867+39.3619+82.9153+41.2579Z" opacity="1" fill="#ffffff"/>
</g>
</svg>
