<svg xmlns="http://www.w3.org/2000/svg" width="500" height="500" viewBox="0 0 500 500">
  <defs>
    <style>
      .a {
        fill: #EF003C;
      }
    </style>
  </defs>
  <title>Chatterbots-icon</title>
  <g>
    <path class="a" d="M483.28,314.68a14.21,14.21,0,0,0-14.22-14.21h-8.59A190.62,190.62,0,0,0,338.09,133.32a11.27,11.27,0,0,0-1.36-.43l.29-.17c-.8-.32-1.6-.61-2.42-.9-2.11-.78-4.26-1.51-6.42-2.23l-2-.62c-.26-.1-.53-.18-.78-.26-2-.6-4-1.17-6-1.69-1.42-.39-2.85-.77-4.29-1.12a.37.37,0,0,1-.14,0l-2.22-.52c-.61-.14-1.19-.28-1.8-.39l-1-.24,0-11.47a10.89,10.89,0,0,0-10.87-10.89l-39.66,0,0-61.73a20.82,20.82,0,0,0,11.73-18.74c0-11.49-10.95-22.42-22.43-22.4s-22.42,10.93-22.4,22.42A20.79,20.79,0,0,0,238.79,41l0,61.36-39.64,0a10.88,10.88,0,0,0-10.88,10.89v11.4l-.64.14L187,125c-.65.13-1.29.27-1.94.43l-2.22.52c-1.48.35-3,.74-4.43,1.15-.74.2-1.48.39-2.21.61l-2.18.64c-1.33.39-2.64.8-3.94,1.21l-.51.18c-.69.21-1.37.45-2,.68l-2.15.74-1.74.63q-2.07.73-4.11,1.56l.25.16c-.49.13-1,.29-1.43.46A190.61,190.61,0,0,0,37.6,300.76H30.85A14.23,14.23,0,0,0,16.64,315l.06,88.65a14.21,14.21,0,0,0,14.23,14.21h6.44l0,17.78a64,64,0,0,0,63.92,63.86h0l295.66-.2a64,64,0,0,0,63.86-64l0-17.78h8.29a14.23,14.23,0,0,0,14.23-14.22ZM397,473.94l-295.65.2h0a38.59,38.59,0,0,1-38.55-38.51l0-17.78h1.74a14.23,14.23,0,0,0,14.2-14.23L78.63,315A14.24,14.24,0,0,0,64.4,300.74H63A165.24,165.24,0,0,1,162.1,159.88c12.22,6.42,41.85,19.05,86.68,19.76a12.34,12.34,0,0,0,2.11-.16c42.41-1.54,70.73-13.45,83.61-20.24,57.23,24.2,96.36,79.47,100.54,141.27a14.2,14.2,0,0,0-13.74,14.23l.05,88.64a14.25,14.25,0,0,0,14.12,14.21v17.78A38.58,38.58,0,0,1,397,473.94Z"/>
    <path class="a" d="M372,286.87l.06,82.58a44.16,44.16,0,0,1-44.13,44.19l-118,.08-.58,3-7,36.77L174,429l-22.57-19.52a44.16,44.16,0,0,1-25.29-39.91L126.07,287a44.16,44.16,0,0,1,44.13-44.19l157.58-.11A44.16,44.16,0,0,1,372,286.87Z"/>
  </g>
</svg>
